{"title":"SM-rechter.(2009).(Dutch spoken)-WaRlOrD","uid":5050522,"size":347052102,"categoryP":"video","categoryS":"movies","magnet":"?xt=urn:btih:757022b7b6f92ef1c9d7f95b16816668e3471f66&amp;dn=SM-rechter.%282009%29.%28Dutch+spoken%29-WaRlOrD&amp;tr=udp%3A%2F%2Ftracker.openbittorrent.com%3A80&amp;tr=udp%3A%2F%2Fopen.demonii.com%3A1337&amp;tr=udp%3A%2F%2Ftracker.coppersurfer.tk%3A6969&amp;tr=udp%3A%2F%2Fexodus.desync.com%3A6969","seeders":0,"leechers":1,"uploader":"bitpirate","files":2,"time":1250168960,"description":"BelgiÃƒÂ«\nDrama\n90 minuten\n\ngeregisseerd door Erik Lamens\nmet Axel Daeseleire, Veerle Dobbelaere en Gene Bervoets\n\nWanneer Koens huwelijk met Magda uiteen dreigt te vallen, beslist hij om zijn eigen fatsoensgrenzen tot het uiterste te testen. Samen ontdekken ze haar verborgen verlangens. Nooit had Koen gedacht dat SM tot een gelukkig huwelijk zou kunnen leiden. Maar wanneer gaandeweg Magda verder gaat, en extremere vormen van genotsbeleving opzoekt, raakt het koppel verstrikt in een web van pooiers, klikkende rijkswachters en afgunstige collega's.\n\nFormat : AVI\nFormat/Info : Audio Video Interleave\nFile size : 331 MiB\nDuration : 1h 24mn\nOverall bit rate : 548 Kbps\nWriting library : VirtualDub build 30586/release\n\nVideo\nID : 0\nFormat : MPEG-4 Visual\nFormat profile : Advanced Simple@L5\nFormat settings, BVOP : Yes\nFormat settings, QPel : No\nFormat settings, GMC : No warppoints\nFormat settings, Matrix : Default (H.263)\nMuxing mode : Packed bitstream\nCodec ID : XVID\nCodec ID/Hint : XviD\nDuration : 1h 24mn\nBit rate : 426 Kbps\nWidth : 640 pixels\nHeight : 368 pixels\nDisplay aspect ratio : 16/9\nFrame rate : 25.000 fps\nResolution : 24 bits\nColorimetry : 4:2:0\nScan type : Progressive\nBits/(Pixel*Frame) : 0.072\nStream size : 257 MiB (78%)\nWriting library : XviD 1.2.1 (UTC 2008-12-04)\n\nAudio\nID : 1\nFormat : MPEG Audio\nFormat version : Version 1\nFormat profile : Layer 3\nCodec ID : 55\nCodec ID/Hint : MP3\nDuration : 1h 24mn\nBit rate mode : Constant\nBit rate : 112 Kbps\nChannel(s) : 2 channels\nSampling rate : 48.0 KHz\nResolution : 16 bits\nStream size : 67.7 MiB (20%)\nAlignment : Split accross interleaves\nInterleave, duration : 40 ms (1.00 video frame)\nInterleave, preload duration : 500 ms","torrent":{"xt":"urn:btih:757022b7b6f92ef1c9d7f95b16816668e3471f66","amp;dn":"SM-rechter.%282009%29.%28Dutch+spoken%29-WaRlOrD","amp;tr":["udp%3A%2F%2Ftracker.openbittorrent.com%3A80","udp%3A%2F%2Fopen.demonii.com%3A1337","udp%3A%2F%2Ftracker.coppersurfer.tk%3A6969","udp%3A%2F%2Fexodus.desync.com%3A6969"],"infoHash":"757022b7b6f92ef1c9d7f95b16816668e3471f66","infoHashBuffer":{"type":"Buffer","data":[117,112,34,183,182,249,46,241,201,215,249,91,22,129,102,104,227,71,31,102]},"announce":[],"urlList":[]}}